<svg version="1.2" baseProfile="tiny-ps" xmlns="http://www.w3.org/2000/svg" viewBox="0 0 999 720" width="999" height="720">
	<path style="paint-order:stroke fill markers;stroke: #088a6a;stroke-width: 32;stroke-linejoin: round;" fill="#08d2a1" aria-label="Glee"  d="M147.46 685.2C196.16 712.06 260.36 624.78 318.47 513.73C367.72 419.29 413.11 274.1 440.22 235.82L439.12 235.47L391.52 244.38C341.71 365.49 261.47 440.28 213.32 441.54C167.38 442.95 148.01 383.48 204.46 267.76C240.44 192.96 314.04 100.6 374.92 95.29C397.61 93.26 406.46 101.01 407.02 111.98C408.13 135.57 374.92 167.24 358.32 157.62C347.25 211.16 408.13 211.39 433.03 135.33C446.87 92.35 424.17 64.49 376.58 69.53C321.24 76.01 269.77 106.67 225.49 150.38C181.22 194.08 144.14 248.62 119.79 303.53C53.93 452 93.78 533.65 170.7 521.46C215.53 514.18 273.09 475.19 329.54 398.21C275.3 538.42 192.29 618.15 135.29 569.05C103.74 609.26 115.36 666.86 147.46 685.2ZM442.44 468.4C495.57 474.5 543.71 408.49 577.47 340.19L565.85 325.76C546.48 363.7 513.83 388.63 492.25 390.45C460.7 392.48 483.94 323.38 497.23 291.56C534.86 275.66 572.49 232.1 600.16 184.86C640.56 114.76 657.72 36.28 613.45 27.96C537.07 13.48 445.76 233.68 418.64 353.86C414.77 371.75 412 388.31 410.34 403.01C406.46 439.71 414.77 465.27 442.44 468.4ZM504.42 259.22C515.49 225.05 529.88 187.49 543.71 153.91C568.07 97.89 591.86 54.14 602.93 58.16C621.19 64.15 601.82 123.67 572.49 176.75C551.46 216.11 524.9 252.07 504.42 259.22ZM601.27 440.33C656.61 429.98 714.17 367.18 743.5 308.01C739.07 304.41 734.09 301.47 729.67 298.42C707.53 336.33 673.22 357.69 646.1 361.66C616.21 366.14 595.74 348.39 615.11 306.58C631.16 331.8 683.18 318.75 708.08 285.86C733.54 253.43 741.29 202.17 704.76 192.4C653.85 178.68 599.06 238.75 570.83 300.48C537.63 372.55 539.29 451.93 601.27 440.33ZM649.42 292.97C641.67 296.08 633.37 295.97 625.07 291.43C633.92 265.43 673.77 213.14 689.27 216.33C702.55 219.93 691.48 248.57 679.3 266.9C670.45 278.51 660.49 288.68 649.42 292.97ZM769.51 408.85C824.86 398.49 882.41 335.7 911.74 276.52C907.32 272.93 902.34 269.98 897.91 266.94C875.77 304.84 841.46 326.2 814.34 330.17C784.46 334.66 763.98 316.91 783.35 275.1C799.4 300.32 851.42 287.26 876.32 254.38C901.78 221.94 909.53 170.68 873 160.91C822.09 147.2 767.3 207.26 739.07 268.99C705.87 341.06 707.53 420.45 769.51 408.85ZM817.66 261.48C809.91 264.59 801.61 264.48 793.31 259.95C802.17 233.94 842.01 181.66 857.51 184.84C870.79 188.45 859.72 217.08 847.55 235.41C838.69 247.03 828.73 257.19 817.66 261.48Z" />
</svg>