<svg version="1.2" baseProfile="tiny-ps" xmlns="http://www.w3.org/2000/svg" viewBox="0 0 999 720" width="999" height="720">
	<title>New Project</title>
	<style>
		tspan { white-space:pre }
	</style>
	<path style="paint-order:stroke fill markers;stroke: #088a6a;stroke-width: 32;stroke-linejoin: round;" fill="#08d2a1" aria-label="Glee"  d="M118.47 665.13C171.18 704.07 240.68 622.6 303.58 514.17C356.9 421.91 406.02 273.94 435.38 237.99L434.18 237.39L382.66 237.39C328.74 358.41 241.88 423.11 189.76 414.72C140.03 406.93 119.06 338.64 180.17 224.81C219.11 151.13 298.79 66.06 364.69 72.65C389.25 75.04 398.83 85.23 399.43 97.21C400.63 122.97 364.69 150.53 346.71 136.75C334.73 192.46 400.63 205.04 427.59 127.76C442.56 84.03 418 49.28 366.48 45.09C306.58 40.9 250.86 63.66 202.94 102C155.01 140.34 114.87 191.86 88.51 246.38C17.22 393.75 60.36 490.2 143.63 492.6C192.15 493.8 254.46 463.24 315.56 391.36C256.85 532.14 166.99 601.63 105.29 536.93C71.14 574.07 83.72 638.77 118.47 665.13ZM437.77 490.2C495.28 507.58 547.4 445.87 583.95 378.78L571.37 360.8C550.4 397.95 515.05 418.31 491.69 415.92C457.54 411.72 482.7 341.63 497.08 309.88C537.82 300.3 578.55 260.76 608.51 215.23C652.24 147.53 670.81 66.06 622.89 48.09C540.21 16.93 441.37 236.79 412.01 361.4C407.82 379.97 404.82 397.35 403.03 412.92C398.83 451.86 407.82 481.22 437.77 490.2ZM504.87 276.33C516.85 241.59 532.43 203.85 547.4 170.3C573.76 114.58 599.52 72.05 611.5 78.64C631.27 88.82 610.31 149.33 578.55 200.85C555.79 239.19 527.03 272.74 504.87 276.33ZM609.71 492C669.61 492 731.92 435.69 763.67 377.58C758.88 372.78 753.48 368.59 748.69 364.4C724.73 400.94 687.59 417.12 658.23 415.92C625.88 414.72 603.72 391.36 624.68 350.02C642.06 380.57 698.37 376.98 725.33 346.43C752.89 316.47 761.27 262.55 721.73 244.58C666.62 219.42 607.31 273.34 576.76 334.44C540.81 405.73 542.61 492 609.71 492ZM661.83 342.23C653.44 344.03 644.45 342.23 635.47 335.64C645.05 309.28 688.19 260.76 704.96 267.35C719.34 273.94 707.36 302.69 694.18 320.07C684.59 330.85 673.81 339.84 661.83 342.23ZM791.83 492C851.73 492 914.04 435.69 945.79 377.58C940.99 372.78 935.6 368.59 930.81 364.4C906.85 400.94 869.7 417.12 840.35 415.92C808 414.72 785.83 391.36 806.8 350.02C824.18 380.57 880.49 376.98 907.45 346.43C935 316.47 943.39 262.55 903.85 244.58C848.74 219.42 789.43 273.34 758.88 334.44C722.93 405.73 724.73 492 791.83 492ZM843.94 342.23C835.56 344.03 826.57 342.23 817.59 335.64C827.17 309.28 870.3 260.76 887.08 267.35C901.46 273.94 889.47 302.69 876.29 320.07C866.71 330.85 855.93 339.84 843.94 342.23Z" />
</svg>